<svg version="1.1" viewBox="0 0 2048 1364" width="128" height="51" xmlns="http://www.w3.org/2000/svg">
<path transform="translate(0)" d="m0 0h2048v1364h-2048z" fill="none"/>
<path transform="translate(1025,364)" d="m0 0 4 4 13 24 14 24 28 49 14 24-1 5-14 24-28 49-11 19-30 52-12 21-10 17-16 28-15 26-14 24-12 21-14 24-13 23-14 24-16 28-14 24-13 23-10 17-12 21-14 24-8 14h-3l-14-24-34-58-15-25-10-17 1-6 12-20 15-26 13-22 15-26 14-24 17-29 15-26 14-24 17-29 15-26 28-48 15-26 10-17 17-29 14-24 15-26 17-29 14-24 12-21z"/>
<path transform="translate(1170,619)" d="m0 0 3 1 11 20 14 24 14 25 10 17 14 25 13 22 14 25 14 24 40 70-1 4-15 25-17 28-16 26-11 18-12 20h-3l-15-26-14-24-13-23-10-17-15-26-8-14-231-1 6-11 30-52 14-24 13-23 10-17 95-1 14-25 14-24 28-49z"/>
</svg>
